<svg id="Bi" xmlns="http://www.w3.org/2000/svg" xmlns:xlink="http://www.w3.org/1999/xlink" viewBox="0 0 310.36 200.5"><defs><style>.cls-1,.cls-14,.cls-15,.cls-16,.cls-17,.cls-18,.cls-19,.cls-7{fill:none;}.cls-2{clip-path:url(#clip-path);}.cls-3{fill:#859fff;}.cls-11,.cls-13,.cls-3,.cls-4,.cls-7,.cls-8{stroke:#000;}.cls-11,.cls-13,.cls-14,.cls-15,.cls-16,.cls-17,.cls-18,.cls-19,.cls-3,.cls-4,.cls-7,.cls-8{stroke-linecap:round;stroke-linejoin:round;}.cls-4{fill:#ff88c9;stroke-width:1.7px;}.cls-5{fill:#ce83ff;}.cls-6{fill:#ad69d1;}.cls-10,.cls-8{fill:#53606c;}.cls-13,.cls-9{fill:#38434f;}.cls-11{fill:#b3becd;stroke-width:1.6px;}.cls-12{fill:#92a1b5;}.cls-13{stroke-width:1.5px;}.cls-14{stroke:#ceace5;}.cls-14,.cls-15,.cls-16,.cls-17,.cls-18,.cls-19{stroke-width:3px;}.cls-15{stroke:#acb2e2;}.cls-16{stroke:#ade0b0;}.cls-17{stroke:#e2e2ac;}.cls-17,.cls-18{stroke-dasharray:4.53 13.59;}.cls-18{stroke:#e2c9ac;}.cls-19{stroke:#e2acac;}.cls-20{fill:#505762;}</style><clipPath id="clip-path" transform="translate(57.5 0)"><rect class="cls-1" y="-85.3" width="294.6" height="279.8"/></clipPath></defs><title>elephant_ui_plane</title><g class="cls-2"><path d="M-56.6,198.2c1.5-3.2,14.4-31.3,27.4-58.8-6-9.3-2-17,1.5-23.7,1.9-3.7,3.8-7.1,3.6-10.4C-24.9,83.3-16,67-1.3,63.7a35.46,35.46,0,0,1,7.5-.9,19.53,19.53,0,0,1,8.1,1.6c1.4-1.3,2.8-2.6,4.2-3.8A12.84,12.84,0,0,1,14,51.8c-.3-4.5,2.2-9.5,6.8-13.7,5.3-4.8,16.5-12.9,31.7-12.9a22.6,22.6,0,0,1,2.6.1A7.59,7.59,0,0,0,53,22.4c-2.1-1.6-1.9-3.2-1.6-4,.7-2.1,3.6-3.2,8.1-3.2a24.92,24.92,0,0,1,14,4.4,3.71,3.71,0,0,1,1.3-1.7,4.47,4.47,0,0,1,2.2-.5c3.4,0,10.6,2.7,15.5,9.9,3.6,5.3,3.6,10.8.1,16,18.3,4.7,30.1,15.6,39.5,24.4,2.5,2.4,5,4.6,7.3,6.5,10.7,8.9,21.4,13.2,32.7,13.2a24.37,24.37,0,0,0,2.7-.1c2-13.5-4.1-25.5-10-35.7-6.2-10.7-6.4-12.1-4.9-13.9l.1-.1a3.11,3.11,0,0,1,2.1-1.1h.3c1.7,0,4.5,1,13,8.7,9.9,9,16.9,22.2,19.2,36.5,8.9-4.9,15.2-12.5,17.1-20.3,2-8.6.5-16.8-4.2-22.7l-13.1,6.1-7-16.9-15.6,3.2L179,11.6h.1l-.2-.5L183.5,0l65.7,11.9c3.1.6,3.9,2.7,3.6,4.5l-.2,1-.4-.1a2.84,2.84,0,0,1-1,.9c-.7.3-7.5,3.6-21,9.9,2.1,2.9,2.2,6.1.4,9.4-1.1,1.9-2.5,6.2.4,13.3,3.7,8.9,3.5,29.2-8.3,46.2-8.1,11.7-18.3,23-37.6,26.6a74.87,74.87,0,0,1-10.2,12.6c-7.8,7.6-24,15.3-42.3,15.3a65.86,65.86,0,0,1-15.9-1.9c-7.6,12.9-10.5,26.2-10.6,32.1-.2,11,.9,16.1.9,16.2l.4,1.8-164.9.8.9-2.3Z" transform="translate(57.5 0)"/></g><g class="cls-2"><path d="M-56.1,198.4c.1-.3,13.9-30.1,27.5-59.1-6.1-9.2-2.1-16.8,1.4-23.5,2-3.7,3.8-7.3,3.7-10.6-.8-21.7,8-37.9,22.4-41a33.87,33.87,0,0,1,7.4-.9A18.54,18.54,0,0,1,14.5,65c1.6-1.6,3.2-3,4.9-4.4-3-2.6-4.6-5.5-4.8-8.8-.3-4.4,2.1-9.2,6.6-13.3,5.3-4.8,16.4-12.8,31.4-12.8,1.1,0,2.2,0,3.3.1A7,7,0,0,0,53.4,22c-1.8-1.4-1.7-2.8-1.5-3.4.6-1.8,3.4-2.9,7.6-2.9,4.4,0,10.3,1.5,14.3,4.8a2.77,2.77,0,0,1,1.3-2.1A3.36,3.36,0,0,1,77,18c3.3,0,10.3,2.6,15.1,9.7,3.6,5.3,3.5,10.9-.3,16.1,18.6,4.6,30.5,15.6,40,24.4,2.6,2.4,5,4.6,7.3,6.5C149.9,83.6,160.7,88,172.2,88c1,0,2.1,0,3.1-.1,2.2-13.9-4-26.1-10-36.4-6.3-10.9-6.2-11.8-5-13.3l.1-.1a2.28,2.28,0,0,1,1.8-.9h.2c1.5,0,4.2,1,12.7,8.6,10,9.1,17,22.5,19.2,36.9,9.3-5,16-12.8,17.9-20.9,2.1-8.9.4-17.4-4.5-23.4l-13,6.1-6.9-16.8-15.1,3.1,6.8-18.4h.6l-.5-1L184,.8l65.3,11.8c3.5.7,3.3,3.2,3.2,3.9l-.1.5h-.2a2.41,2.41,0,0,1-1,1q-1,.45-21.6,10.2a1.38,1.38,0,0,1,.3.4,7.65,7.65,0,0,1,.4,8.9c-1.1,2-2.6,6.4.4,13.7,3.6,8.8,3.4,28.8-8.2,45.7-8.1,11.7-18.2,22.9-37.5,26.4A68,68,0,0,1,174.7,136c-7.8,7.5-23.7,15.1-42,15.1a67,67,0,0,1-16.1-2c-7.7,13.1-10.7,26.7-10.9,32.7-.2,11.1.9,16.2.9,16.3l.3,1.2-163.5.8.5-1.7Z" transform="translate(57.5 0)"/></g><g class="cls-2"><path class="cls-3" d="M181.6,13.3l-1-2.1,3.9-9.4L249,13.4c2.4.5,2.5,2,2.4,2.8" transform="translate(57.5 0)"/></g><g class="cls-2"><path class="cls-4" d="M188.3,26.3l6.9,16.6s53.7-25.1,55.5-26c.9-.5,1.5-2.2-1-2.3s-69.6-1.4-69.6-1.4l-5.9,16,14.1-2.9Z" transform="translate(57.5 0)"/></g><g class="cls-2"><path class="cls-5" d="M189.2,26.6l59.3-11.8,1,.1.6-.1c.6.7-.9-.2.6.7.5.3.1.5-.2.9L195.6,41.7Z" transform="translate(57.5 0)"/></g><g class="cls-2"><path class="cls-6" d="M189.2,26.6l58.9-11.2,1.4-.5h.4c1.1.9.7.3.8.6a.74.74,0,0,1-.4.8L191.1,31.1Z" transform="translate(57.5 0)"/></g><g class="cls-2"><path class="cls-7" d="M188.3,26.3l61.8-11.5" transform="translate(57.5 0)"/></g><g class="cls-2"><path class="cls-8" d="M-7.4,97.5c20-40,49.9-56.3,83.4-54.9s48.8,21.7,62.4,32.9S165.9,91.1,181.8,88,210.3,73.4,213,61.9s-1-20.7-6.1-25.8-1.4-8.1,4.1-6.8a25.27,25.27,0,0,1,8.1,3.4s7.8-6.4,9.8-3.7a6.62,6.62,0,0,1,.3,7.8c-1.4,2.4-2.7,7.1.3,14.6s4.1,27.1-8.1,44.8-26.5,30.1-62.1,26.5c-38.5-3.9-54.6,44.2-54.9,59-.2,11.5.9,16.5.9,16.5l-160.7.8c.2-.1,33.4-72.4,48-101.5Z" transform="translate(57.5 0)"/></g><g class="cls-2"><path class="cls-9" d="M3.5,158.9a14.85,14.85,0,0,1-10-4.3l-.2-.2-.3.1a29.26,29.26,0,0,1-9,1.5,21.14,21.14,0,0,1-15.6-6.5c1.4-3,2.9-6.1,4.3-9.1.1.1.1.2.2.3,6.1,8,12.7,9.7,17,9.7a17.63,17.63,0,0,0,6.6-1.3A8.62,8.62,0,0,0,4,153.8a11.8,11.8,0,0,0,3.9-.8c6.7-2.5,15.7-13.1,18.3-22.1,3.2,5.7-2.8,18.3-13.8,25.3a18.31,18.31,0,0,1-8.9,2.7ZM28,80.8C22.3,69.7,17.2,66.6,15.6,65.9c15.7-15.3,34.7-23,56.6-23,1.3,0,2.5,0,3.8.1,2.1.1,4.2.3,6.4.5,1.5,2.7-.4,5.6-.8,6.3-3,.8-11.2,6.5-18.5,11.6-1.9,1.3-3.7,2.6-5.3,3.7-5.3,3.7-13.6,4.2-18,4.2-1.8,0-2.9-.1-2.9-.1h-.3L28,80.8Zm95.3,49c4.2-7.1,12.6-15.2,28.3-15.2a53.62,53.62,0,0,1,11,1.2,52.94,52.94,0,0,0,10.6,1.1c15.9,0,29.8-7.9,34.8-12.5,6.5-6,10.5-9.8,12-12.4,1.4-2.4,3.2-2.8,4.7-2,.1.1-.7,1.1-.6,1.1a38.8,38.8,0,0,1-3,4.8c-11.5,16.6-23.9,26.9-50,26.9-3.6,0-7.5-.2-11.6-.6a33.14,33.14,0,0,0-4.4-.2,40.89,40.89,0,0,0-25.9,9.4l-5.9-1.6Z" transform="translate(57.5 0)"/></g><g class="cls-2"><path class="cls-8" d="M31.5,90.1c-9.1-24.2-19-27.9-32.4-25s-22.4,18-21.6,40c.4,10.2-15.5,20.5-4.3,35s23.5,8,23.5,8,3,7.1,11,4.1,16.7-13.5,18.5-21.6" transform="translate(57.5 0)"/></g><g class="cls-2"><path class="cls-9" d="M21.3,103.8c-7.3.5-8.6-4.8-7.3-7s4.6-3.2,4.6-3.2-5.3-.2-6.3-4,4-5.3,4-5.3S13.4,75.7,3,78.2s-14.4,11.7-14.2,19c.6,15.3-10.2,22.8,0,29.7s23.7-2.8,28.5-11.3,4-11.8,4-11.8Z" transform="translate(57.5 0)"/></g><g class="cls-2"><path class="cls-7" d="M-3.3,148.2a36.64,36.64,0,0,0,9.1-7.5m15.5-36.9c-7.3.5-8.6-4.8-7.3-7s4.6-3.2,4.6-3.2-5.3-.2-6.3-4,4-5.3,4-5.3S13.4,75.7,3,78.2a18.35,18.35,0,0,0-14.2,19" transform="translate(57.5 0)"/></g><g class="cls-2"><path class="cls-10" d="M21.6,61c-9.8-6.9-6.2-16,.3-21.8s19-14,35.2-12.2A8.69,8.69,0,0,0,54,21.2c-2.9-2.3-.5-4.5,5.5-4.5s12.9,2.6,15.8,6.9c0,0-1.4-3.2.4-4.4s10.2,1,15.6,9,1.1,14.9-5.2,19.9S49.9,59.7,37.3,59" transform="translate(57.5 0)"/></g><g class="cls-2"><path class="cls-9" d="M63.6,48.3c-11.1.6-22.1,3.3-32.9,6.1-4.1,1.1-8.2,2.2-12.4,2-.4,0-.8-.1-1.3-.1A16.9,16.9,0,0,0,21.6,61l15.6-2.1c11.3.7,37-4.7,46.4-9.4a95.2,95.2,0,0,0-20-1.2Z" transform="translate(57.5 0)"/></g><g class="cls-2"><path class="cls-9" d="M21.6,60.4c-3.5-2.5-5.3-5.5-5.5-8.8s1.2-6.7,4-9.9a7.05,7.05,0,0,0,6.8,8.7,9.89,9.89,0,0,0,6.3-2.6c7.2-6,19.4-10.4,29.1-10.4a28.92,28.92,0,0,1,5.3.5c7.7,1.6,12.3,3.7,13.8,6.7a6.35,6.35,0,0,1,0,5.4c-10.1,4.3-31.2,8.6-42.1,8.6a14.77,14.77,0,0,1-2.1-.1c-1.4-.1-2.8-.1-4-.1-7.5-.1-10.6,1.4-11.6,2Z" transform="translate(57.5 0)"/></g><g class="cls-2"><path class="cls-7" d="M75.3,23.6a8.31,8.31,0,0,1,1.1,6.7" transform="translate(57.5 0)"/></g><g class="cls-2"><path class="cls-11" d="M93.7,137.5c34.6,23.5,68.7,8.7,80.2-2.4s20.8-28.5,20-45.9-8.5-32.9-19.5-42.8c-10.7-9.6-12.4-8.7-13.2-7.7s-1.4,1.1,5,12.2,13.4,24.6,9.5,40.2-15.6,29.9-29.6,34-21.6-1.4-26.1-3.2a3.36,3.36,0,0,1-3.4,4.3c-4.3.3-11.1-2.9-11.1-2.9s2.7,3,.1,5-5.9-.9-5.9-.9,2.5,2.2,1.5,3.3-2.3.8-4.2-.6c0,0,3.2,3.6,1,5.5a7.21,7.21,0,0,1-4.3,1.9Z" transform="translate(57.5 0)"/></g><g class="cls-2"><path class="cls-12" d="M132.7,149.5a67.42,67.42,0,0,1-37.6-11.7,7.27,7.27,0,0,0,3.3-1.8c1.4-1.3,1-3,.3-4.3a5.16,5.16,0,0,0,1.1.2,2.5,2.5,0,0,0,1.8-.8,1.28,1.28,0,0,0,.4-1,2.92,2.92,0,0,0-.2-.9,5.85,5.85,0,0,0,1.9.4,4.07,4.07,0,0,0,2.4-.8,2.7,2.7,0,0,0,.7-.8c12.6,6.2,22.6,9.1,31.5,9.1a35.07,35.07,0,0,0,21.1-6.9c16.8-12.3,21.3-21.3,24.6-27.9l.3-.6c2.3-4.5,4.2-6.5,6.4-6.5a5.1,5.1,0,0,1,2.7.9c-1.4,13.6-8.7,28-19.6,38.6C165.9,142.1,150.4,149.5,132.7,149.5Z" transform="translate(57.5 0)"/></g><g class="cls-2"><path class="cls-7" d="M93.7,137.5a20.3,20.3,0,0,1-6.7-.9" transform="translate(57.5 0)"/></g><g class="cls-2"><path class="cls-13" d="M88.1,77.9c-2.2.9-2.1,3.2.1,6.7s4.5,7.9,5.9,10.3,2.6,3.5,4,2.8,1.8-2,.4-4.9-5.8-11-7.2-12.7c-1.6-1.7-2.4-2.5-3.2-2.2Z" transform="translate(57.5 0)"/></g><g class="cls-2"><path class="cls-7" d="M130,77.4a19.58,19.58,0,0,1,4.8-5.2m3.8,11.9a28.17,28.17,0,0,1,3.7-5.6m11.9,13.3a12.8,12.8,0,0,1,2.7-5.6m10.7,9c.6-4.6.9-6.6.9-6.6" transform="translate(57.5 0)"/></g><g class="cls-2"><path class="cls-14" d="M176.5,34.1c.8-.2,2.3-.5,3.1-.8" transform="translate(57.5 0)"/><path class="cls-15" d="M162.3,33.1a18.5,18.5,0,0,0,4.4,1" transform="translate(57.5 0)"/><path class="cls-16" d="M147.6,27.3a49.14,49.14,0,0,1,5.3,1.9" transform="translate(57.5 0)"/><path class="cls-17" d="M133.4,24.2c5.4.1,10.5,2.5,11.1,1.2" transform="translate(57.5 0)"/><path class="cls-18" d="M119.9,26.9c7.9-3.2,6.8-1.1,11-2.8" transform="translate(57.5 0)"/><path class="cls-19" d="M108.5,32.1c.8-.4,2-1.1,2.7-1.4" transform="translate(57.5 0)"/></g><g class="cls-2"><path class="cls-20" d="M95.3,116.3a59.29,59.29,0,0,0-10,3.5,4.34,4.34,0,0,1-5.6-1.9,4.2,4.2,0,0,1,2.3-5.6,61.85,61.85,0,0,1,11.2-3.9,4.32,4.32,0,0,1,5.3,2.9,4.42,4.42,0,0,1-3.2,5Z" transform="translate(57.5 0)"/></g><g class="cls-2"><path class="cls-7" d="M119.9,121.9a4.51,4.51,0,0,0-1.7-3.3" transform="translate(57.5 0)"/></g><g class="cls-2"><path d="M58.6,57.1c-3.5.7-7.1,1.3-10.6,1.7a65.21,65.21,0,0,1-10.8.6.5.5,0,0,1,0-1A75.16,75.16,0,0,0,47.8,58c3.5-.4,7.1-.9,10.6-1.6.2,0,.4.1.4.3S58.8,57.1,58.6,57.1Z" transform="translate(57.5 0)"/></g><g class="cls-2"><path d="M21.3,61.4a15.44,15.44,0,0,1-5.4-6.2l-.4-1-.2-1-.1-.5v-.5c0-.4-.1-.7-.1-1.1a11.41,11.41,0,0,1,.7-4.1,20.84,20.84,0,0,1,4.4-6.9,43.81,43.81,0,0,1,6.2-5.2,49.24,49.24,0,0,1,7-4.1A41.06,41.06,0,0,1,41,27.9a43.69,43.69,0,0,1,16.1-1.4l-.6.5a10.26,10.26,0,0,0-1.4-3.8,5,5,0,0,0-1.4-1.5,4.88,4.88,0,0,1-1.5-1.9,1.7,1.7,0,0,1-.1-.7c.1-.2.1-.5.2-.7a2.58,2.58,0,0,1,.9-.9,6,6,0,0,1,2.2-.9,22.5,22.5,0,0,1,4.4-.4A25.43,25.43,0,0,1,68.4,18a16.07,16.07,0,0,1,7.1,5.3l-.9.5a5,5,0,0,1-.5-2.1,3.9,3.9,0,0,1,.4-2.3c.3-.3.5-.7,1-.8.2-.1.4-.1.6-.2s.4-.1.6-.1a14.92,14.92,0,0,1,2.1.2,18.16,18.16,0,0,1,3.9,1.4A25,25,0,0,1,86.2,22a22.47,22.47,0,0,1,5.6,5.9,18.06,18.06,0,0,1,1.8,3.7,6.53,6.53,0,0,1,.5,2,3.4,3.4,0,0,1,.1,1v1a13.08,13.08,0,0,1-3,7.6,26.16,26.16,0,0,1-5.9,5.6A43.54,43.54,0,0,1,77.9,52a49.35,49.35,0,0,1-7.8,1.9c1.2-.5,2.5-.9,3.7-1.4l3.7-1.3A35.86,35.86,0,0,0,84.7,48a26,26,0,0,0,5.6-5.4,13.21,13.21,0,0,0,2.7-7,12.16,12.16,0,0,0-2.2-7.1,21.8,21.8,0,0,0-12.2-9,11,11,0,0,0-1.8-.2,1.43,1.43,0,0,0-1.3.5c-.5.8-.2,2.3.2,3.4a.42.42,0,0,1-.3.6c-.2.1-.4,0-.6-.2a14.73,14.73,0,0,0-6.6-4.9A21.12,21.12,0,0,0,60,17a19.92,19.92,0,0,0-4.2.4,7.51,7.51,0,0,0-1.8.7c-.5.4-.8.8-.7,1.3s.6.9,1.2,1.4A8,8,0,0,1,56,22.5a9.37,9.37,0,0,1,1.6,4.3.46.46,0,0,1-.4.5h-.1a42.1,42.1,0,0,0-15.8,1.4,51,51,0,0,0-7.4,2.8,42.34,42.34,0,0,0-6.8,4.1A37.51,37.51,0,0,0,21,40.7a18.17,18.17,0,0,0-4.2,6.5,16,16,0,0,0-.7,3.8c0,.3.1.6.1,1v.5l.1.5.2.9.4.9a14,14,0,0,0,5,5.8.49.49,0,0,1,.1.7.48.48,0,0,1-.7.1Z" transform="translate(57.5 0)"/></g><g class="cls-2"><path class="cls-9" d="M219.2,32.8c2,1.2,2.3,1.8,2.3,1.8" transform="translate(57.5 0)"/><path d="M219.4,32.5l1.2.9c.2.2.4.3.6.5s.3.4.5.6c0,.1,0,.2-.1.2h-.2l-.5-.5c-.2-.1-.4-.3-.6-.4a5.39,5.39,0,0,0-1.3-.7c-.2-.1-.2-.3-.1-.5s.2-.2.5-.1Z" transform="translate(57.5 0)"/></g></svg>