<?xml version="1.0" encoding="utf-8"?>
<!-- Generator: Adobe Illustrator 23.0.3, SVG Export Plug-In . SVG Version: 6.00 Build 0)  -->
<svg version="1.1" id="图层_1" xmlns="http://www.w3.org/2000/svg" xmlns:xlink="http://www.w3.org/1999/xlink" x="0px" y="0px"
	 viewBox="0 0 252.9 194.5" style="enable-background:new 0 0 252.9 194.5;" xml:space="preserve">
<style type="text/css">
	.st0{clip-path:url(#SVGID_2_);}
	.st1{clip-path:url(#SVGID_4_);}
	.st2{clip-path:url(#SVGID_6_);fill:#859FFF;stroke:#000000;stroke-linecap:round;stroke-linejoin:round;stroke-miterlimit:10;}
	
		.st3{clip-path:url(#SVGID_8_);fill:#FF88C9;stroke:#000000;stroke-width:1.7;stroke-linecap:round;stroke-linejoin:round;stroke-miterlimit:10;}
	.st4{clip-path:url(#SVGID_10_);fill:#CE83FF;}
	.st5{clip-path:url(#SVGID_10_);fill:#AD69D1;}
	.st6{clip-path:url(#SVGID_12_);fill:none;stroke:#000000;stroke-linecap:round;stroke-linejoin:round;stroke-miterlimit:10;}
	.st7{clip-path:url(#SVGID_14_);fill:#53606C;stroke:#000000;stroke-linecap:round;stroke-linejoin:round;stroke-miterlimit:10;}
	.st8{clip-path:url(#SVGID_16_);fill:#38434F;}
	.st9{clip-path:url(#SVGID_18_);fill:#53606C;stroke:#000000;stroke-linecap:round;stroke-linejoin:round;stroke-miterlimit:10;}
	.st10{clip-path:url(#SVGID_20_);fill:#38434F;}
	.st11{clip-path:url(#SVGID_22_);fill:none;stroke:#000000;stroke-linecap:round;stroke-linejoin:round;stroke-miterlimit:10;}
	.st12{clip-path:url(#SVGID_24_);fill:#53606C;}
	.st13{clip-path:url(#SVGID_26_);}
	.st14{fill:#38434F;}
	.st15{clip-path:url(#SVGID_28_);fill:#38434F;}
	.st16{clip-path:url(#SVGID_30_);fill:none;stroke:#000000;stroke-linecap:round;stroke-linejoin:round;stroke-miterlimit:10;}
	
		.st17{clip-path:url(#SVGID_32_);fill:#B3BECD;stroke:#000000;stroke-width:1.6;stroke-linecap:round;stroke-linejoin:round;stroke-miterlimit:10;}
	.st18{clip-path:url(#SVGID_34_);fill:#92A1B5;}
	.st19{clip-path:url(#SVGID_36_);fill:none;stroke:#000000;stroke-linecap:round;stroke-linejoin:round;stroke-miterlimit:10;}
	
		.st20{clip-path:url(#SVGID_38_);fill:#38434F;stroke:#000000;stroke-width:1.5;stroke-linecap:round;stroke-linejoin:round;stroke-miterlimit:10;}
	.st21{clip-path:url(#SVGID_40_);fill:none;stroke:#000000;stroke-linecap:round;stroke-linejoin:round;stroke-miterlimit:10;}
	.st22{clip-path:url(#SVGID_42_);}
	.st23{display:none;fill:none;stroke:#E3E5E5;stroke-width:3;stroke-linecap:round;stroke-linejoin:round;}
	
		.st24{display:none;fill:none;stroke:#E3E5E5;stroke-width:3;stroke-linecap:round;stroke-linejoin:round;stroke-dasharray:4.5286,13.5857;}
	.st25{fill:none;stroke:#CEACE5;stroke-width:3;stroke-linecap:round;stroke-linejoin:round;}
	.st26{fill:none;stroke:#ACB2E2;stroke-width:3;stroke-linecap:round;stroke-linejoin:round;}
	.st27{fill:none;stroke:#ADE0B0;stroke-width:3;stroke-linecap:round;stroke-linejoin:round;}
	.st28{fill:none;stroke:#E2E2AC;stroke-width:3;stroke-linecap:round;stroke-linejoin:round;stroke-dasharray:4.5286,13.5857;}
	.st29{fill:none;stroke:#E2C9AC;stroke-width:3;stroke-linecap:round;stroke-linejoin:round;stroke-dasharray:4.5286,13.5857;}
	.st30{fill:none;stroke:#E2ACAC;stroke-width:3;stroke-linecap:round;stroke-linejoin:round;}
	.st31{clip-path:url(#SVGID_44_);}
	.st32{fill:#505762;}
	.st33{clip-path:url(#SVGID_46_);fill:none;stroke:#000000;stroke-linecap:round;stroke-linejoin:round;stroke-miterlimit:10;}
	.st34{clip-path:url(#SVGID_48_);}
	.st35{clip-path:url(#SVGID_50_);}
	.st36{clip-path:url(#SVGID_52_);}
</style>
<g transform="translate(-395.89999 -830.4)">
	<g>
		<defs>
			<rect id="SVGID_1_" x="395.9" y="745.1" width="294.6" height="279.8"/>
		</defs>
		<clipPath id="SVGID_2_">
			<use xlink:href="#SVGID_1_"  style="overflow:visible;"/>
		</clipPath>
		<path class="st0" d="M339.3,1028.6c1.5-3.2,14.4-31.3,27.4-58.8c-6-9.3-2-17,1.5-23.7c1.9-3.7,3.8-7.1,3.6-10.4
			c-0.8-22,8.1-38.3,22.8-41.6c2.8-0.6,5.2-0.9,7.5-0.9c3,0,5.6,0.5,8.1,1.6c1.4-1.3,2.8-2.6,4.2-3.8c-2.8-2.6-4.3-5.5-4.5-8.8
			c-0.3-4.5,2.2-9.5,6.8-13.7c5.3-4.8,16.5-12.9,31.7-12.9c0.9,0,1.7,0,2.6,0.1c-0.4-0.9-1-2-2.1-2.9c-2.1-1.6-1.9-3.2-1.6-4
			c0.7-2.1,3.6-3.2,8.1-3.2c3.9,0,9.7,1.2,14,4.4c0.3-0.7,0.7-1.3,1.3-1.7c0.5-0.3,1.3-0.5,2.2-0.5c3.4,0,10.6,2.7,15.5,9.9
			c3.6,5.3,3.6,10.8,0.1,16c18.3,4.7,30.1,15.6,39.5,24.4c2.5,2.4,5,4.6,7.3,6.5c10.7,8.9,21.4,13.2,32.7,13.2c0.9,0,1.8,0,2.7-0.1
			c2-13.5-4.1-25.5-10-35.7c-6.2-10.7-6.4-12.1-4.9-13.9l0.1-0.1c0.6-0.7,1.3-1,2.1-1.1h0.3c1.7,0,4.5,1,13,8.7
			c9.9,9,16.9,22.2,19.2,36.5c8.9-4.9,15.2-12.5,17.1-20.3c2-8.6,0.5-16.8-4.2-22.7l-13.1,6.1l-7-16.9l-15.6,3.2l7.2-19.5h0.1
			l-0.2-0.5l4.6-11.1l65.7,11.9c3.1,0.6,3.9,2.7,3.6,4.5l-0.2,1l-0.4-0.1c-0.3,0.4-0.6,0.7-1,0.9c-0.7,0.3-7.5,3.6-21,9.9
			c2.1,2.9,2.2,6.1,0.4,9.4c-1.1,1.9-2.5,6.2,0.4,13.3c3.7,8.9,3.5,29.2-8.3,46.2c-8.1,11.7-18.3,23-37.6,26.6
			c-3,4.6-6.5,9-10.2,12.6c-7.8,7.6-24,15.3-42.3,15.3c-5.3,0-10.7-0.6-15.9-1.9c-7.6,12.9-10.5,26.2-10.6,32.1
			c-0.2,11,0.9,16.1,0.9,16.2l0.4,1.8l-164.9,0.8L339.3,1028.6L339.3,1028.6z"/>
	</g>
	<g>
		<defs>
			<rect id="SVGID_3_" x="395.9" y="745.1" width="294.6" height="279.8"/>
		</defs>
		<clipPath id="SVGID_4_">
			<use xlink:href="#SVGID_3_"  style="overflow:visible;"/>
		</clipPath>
		<path class="st1" d="M339.8,1028.8c0.1-0.3,13.9-30.1,27.5-59.1c-6.1-9.2-2.1-16.8,1.4-23.5c2-3.7,3.8-7.3,3.7-10.6
			c-0.8-21.7,8-37.9,22.4-41c2.7-0.6,5.1-0.9,7.4-0.9c3,0,5.7,0.5,8.2,1.7c1.6-1.6,3.2-3,4.9-4.4c-3-2.6-4.6-5.5-4.8-8.8
			c-0.3-4.4,2.1-9.2,6.6-13.3c5.3-4.8,16.4-12.8,31.4-12.8c1.1,0,2.2,0,3.3,0.1c-0.3-1.1-1-2.7-2.5-3.8c-1.8-1.4-1.7-2.8-1.5-3.4
			c0.6-1.8,3.4-2.9,7.6-2.9c4.4,0,10.3,1.5,14.3,4.8c0.1-0.9,0.6-1.7,1.3-2.1c0.4-0.3,1.1-0.4,1.9-0.4c3.3,0,10.3,2.6,15.1,9.7
			c3.6,5.3,3.5,10.9-0.3,16.1c18.6,4.6,30.5,15.6,40,24.4c2.6,2.4,5,4.6,7.3,6.5c10.8,8.9,21.6,13.3,33.1,13.3c1,0,2.1,0,3.1-0.1
			c2.2-13.9-4-26.1-10-36.4c-6.3-10.9-6.2-11.8-5-13.3l0.1-0.1c0.2-0.2,0.7-0.9,1.8-0.9h0.2c1.5,0,4.2,1,12.7,8.6
			c10,9.1,17,22.5,19.2,36.9c9.3-5,16-12.8,17.9-20.9c2.1-8.9,0.4-17.4-4.5-23.4l-13,6.1l-6.9-16.8l-15.1,3.1l6.8-18.4h0.6l-0.5-1
			l4.4-10.6l65.3,11.8c3.5,0.7,3.3,3.2,3.2,3.9l-0.1,0.5h-0.2c-0.2,0.4-0.6,0.8-1,1c-0.7,0.3-7.9,3.7-21.6,10.2
			c0.1,0.1,0.2,0.2,0.3,0.4c2,2.7,2.2,5.8,0.4,8.9c-1.1,2-2.6,6.4,0.4,13.7c3.6,8.8,3.4,28.8-8.2,45.7
			c-8.1,11.7-18.2,22.9-37.5,26.4c-3,4.7-6.5,9.1-10.3,12.7c-7.8,7.5-23.7,15.1-42,15.1c-5.4,0-10.9-0.7-16.1-2
			c-7.7,13.1-10.7,26.7-10.9,32.7c-0.2,11.1,0.9,16.2,0.9,16.3l0.3,1.2l-163.5,0.8L339.8,1028.8L339.8,1028.8z"/>
	</g>
	<g>
		<defs>
			<rect id="SVGID_5_" x="395.9" y="745.1" width="294.6" height="279.8"/>
		</defs>
		<clipPath id="SVGID_6_">
			<use xlink:href="#SVGID_5_"  style="overflow:visible;"/>
		</clipPath>
		<path class="st2" d="M577.5,843.7l-1-2.1l3.9-9.4l64.5,11.6c2.4,0.5,2.5,2,2.4,2.8"/>
	</g>
	<g>
		<defs>
			<rect id="SVGID_7_" x="395.9" y="745.1" width="294.6" height="279.8"/>
		</defs>
		<clipPath id="SVGID_8_">
			<use xlink:href="#SVGID_7_"  style="overflow:visible;"/>
		</clipPath>
		<path class="st3" d="M584.2,856.7l6.9,16.6c0,0,53.7-25.1,55.5-26c0.9-0.5,1.5-2.2-1-2.3s-69.6-1.4-69.6-1.4l-5.9,16L584.2,856.7
			L584.2,856.7z"/>
	</g>
	<g>
		<defs>
			<rect id="SVGID_9_" x="395.9" y="745.1" width="294.6" height="279.8"/>
		</defs>
		<clipPath id="SVGID_10_">
			<use xlink:href="#SVGID_9_"  style="overflow:visible;"/>
		</clipPath>
		<path class="st4" d="M585.1,857l59.3-11.8l1,0.1l0.6-0.1c0.6,0.7-0.9-0.2,0.6,0.7c0.5,0.3,0.1,0.5-0.2,0.9l-54.9,25.3L585.1,857z"
			/>
		<path class="st5" d="M585.1,857l58.9-11.2l1.4-0.5h0.4c1.1,0.9,0.7,0.3,0.8,0.6s-0.1,0.6-0.4,0.8L587,861.5L585.1,857z"/>
	</g>
	<g>
		<defs>
			<rect id="SVGID_11_" x="395.9" y="745.1" width="294.6" height="279.8"/>
		</defs>
		<clipPath id="SVGID_12_">
			<use xlink:href="#SVGID_11_"  style="overflow:visible;"/>
		</clipPath>
		<path class="st6" d="M584.2,856.7l61.8-11.5"/>
	</g>
	<g>
		<defs>
			<rect id="SVGID_13_" x="395.9" y="745.1" width="294.6" height="279.8"/>
		</defs>
		<clipPath id="SVGID_14_">
			<use xlink:href="#SVGID_13_"  style="overflow:visible;"/>
		</clipPath>
		<path class="st7" d="M388.5,927.9c20-40,49.9-56.3,83.4-54.9c33.6,1.4,48.8,21.7,62.4,32.9s27.5,15.6,43.4,12.5
			s28.5-14.6,31.2-26.1s-1-20.7-6.1-25.8s-1.4-8.1,4.1-6.8c5.4,1.4,8.1,3.4,8.1,3.4s7.8-6.4,9.8-3.7s1.7,5.4,0.3,7.8
			c-1.4,2.4-2.7,7.1,0.3,14.6c3.1,7.5,4.1,27.1-8.1,44.8c-12.2,17.6-26.5,30.1-62.1,26.5c-38.5-3.9-54.6,44.2-54.9,59
			c-0.2,11.5,0.9,16.5,0.9,16.5l-160.7,0.8C340.7,1029.3,373.9,957,388.5,927.9L388.5,927.9z"/>
	</g>
	<g>
		<defs>
			<rect id="SVGID_15_" x="395.9" y="745.1" width="294.6" height="279.8"/>
		</defs>
		<clipPath id="SVGID_16_">
			<use xlink:href="#SVGID_15_"  style="overflow:visible;"/>
		</clipPath>
		<path class="st8" d="M399.4,989.3c-6.1,0-9.9-4.3-10-4.3l-0.2-0.2l-0.3,0.1c-3.1,1-6.1,1.5-9,1.5c-6.1,0-11.4-2.2-15.6-6.5
			c1.4-3,2.9-6.1,4.3-9.1c0.1,0.1,0.1,0.2,0.2,0.3c6.1,8,12.7,9.7,17,9.7c3.2,0,5.6-0.9,6.6-1.3c0.7,1.3,3,4.7,7.5,4.7
			c1.2,0,2.5-0.3,3.9-0.8c6.7-2.5,15.7-13.1,18.3-22.1c3.2,5.7-2.8,18.3-13.8,25.3C405.3,988.3,402.3,989.3,399.4,989.3L399.4,989.3
			z M423.9,911.2c-5.7-11.1-10.8-14.2-12.4-14.9c15.7-15.3,34.7-23,56.6-23c1.3,0,2.5,0,3.8,0.1c2.1,0.1,4.2,0.3,6.4,0.5
			c1.5,2.7-0.4,5.6-0.8,6.3c-3,0.8-11.2,6.5-18.5,11.6c-1.9,1.3-3.7,2.6-5.3,3.7c-5.3,3.7-13.6,4.2-18,4.2c-1.8,0-2.9-0.1-2.9-0.1
			h-0.3L423.9,911.2L423.9,911.2z M519.2,960.2c4.2-7.1,12.6-15.2,28.3-15.2c3.5,0,7.2,0.4,11,1.2c3.4,0.7,7,1.1,10.6,1.1
			c15.9,0,29.8-7.9,34.8-12.5c6.5-6,10.5-9.8,12-12.4c1.4-2.4,3.2-2.8,4.7-2c0.1,0.1-0.7,1.1-0.6,1.1c-0.9,1.7-1.9,3.3-3,4.8
			c-11.5,16.6-23.9,26.9-50,26.9c-3.6,0-7.5-0.2-11.6-0.6c-1.5-0.2-3-0.2-4.4-0.2c-9.4,0-18.1,3.2-25.9,9.4L519.2,960.2L519.2,960.2
			z"/>
	</g>
	<g>
		<defs>
			<rect id="SVGID_17_" x="395.9" y="745.1" width="294.6" height="279.8"/>
		</defs>
		<clipPath id="SVGID_18_">
			<use xlink:href="#SVGID_17_"  style="overflow:visible;"/>
		</clipPath>
		<path class="st9" d="M427.4,920.5c-9.1-24.2-19-27.9-32.4-25c-13.4,3-22.4,18-21.6,40c0.4,10.2-15.5,20.5-4.3,35s23.5,8,23.5,8
			s3,7.1,11,4.1s16.7-13.5,18.5-21.6"/>
	</g>
	<g>
		<defs>
			<rect id="SVGID_19_" x="395.9" y="745.1" width="294.6" height="279.8"/>
		</defs>
		<clipPath id="SVGID_20_">
			<use xlink:href="#SVGID_19_"  style="overflow:visible;"/>
		</clipPath>
		<path class="st10" d="M417.2,934.2c-7.3,0.5-8.6-4.8-7.3-7c1.2-2.1,4.6-3.2,4.6-3.2s-5.3-0.2-6.3-4c-1-3.7,4-5.3,4-5.3
			s-2.9-8.6-13.3-6.1s-14.4,11.7-14.2,19c0.6,15.3-10.2,22.8,0,29.7c10.1,6.9,23.7-2.8,28.5-11.3S417.2,934.2,417.2,934.2
			L417.2,934.2z"/>
	</g>
	<g>
		<defs>
			<rect id="SVGID_21_" x="395.9" y="745.1" width="294.6" height="279.8"/>
		</defs>
		<clipPath id="SVGID_22_">
			<use xlink:href="#SVGID_21_"  style="overflow:visible;"/>
		</clipPath>
		<path class="st11" d="M392.6,978.6c6.3-3.9,9.1-7.5,9.1-7.5 M417.2,934.2c-7.3,0.5-8.6-4.8-7.3-7c1.2-2.1,4.6-3.2,4.6-3.2
			s-5.3-0.2-6.3-4c-1-3.7,4-5.3,4-5.3s-2.9-8.6-13.3-6.1s-14.6,11.7-14.2,19"/>
	</g>
	<g>
		<defs>
			<rect id="SVGID_23_" x="395.9" y="745.1" width="294.6" height="279.8"/>
		</defs>
		<clipPath id="SVGID_24_">
			<use xlink:href="#SVGID_23_"  style="overflow:visible;"/>
		</clipPath>
		<path class="st12" d="M417.5,891.4c-9.8-6.9-6.2-16,0.3-21.8s19-14,35.2-12.2c0,0-0.2-3.5-3.1-5.8s-0.5-4.5,5.5-4.5
			s12.9,2.6,15.8,6.9c0,0-1.4-3.2,0.4-4.4s10.2,1,15.6,9s1.1,14.9-5.2,19.9c-6.3,5-36.2,11.6-48.8,10.9"/>
	</g>
	<g>
		<defs>
			<rect id="SVGID_25_" x="395.9" y="745.1" width="294.6" height="279.8"/>
		</defs>
		<clipPath id="SVGID_26_">
			<use xlink:href="#SVGID_25_"  style="overflow:visible;"/>
		</clipPath>
		<g class="st13">
			<path class="st14" d="M459.5,878.7c-11.1,0.6-22.1,3.3-32.9,6.1c-4.1,1.1-8.2,2.2-12.4,2c-0.4,0-0.8-0.1-1.3-0.1
				c1,1.6,2.5,3.2,4.6,4.7l15.6-2.1c11.3,0.7,37-4.7,46.4-9.4C473,878.8,466.2,878.4,459.5,878.7L459.5,878.7z"/>
		</g>
	</g>
	<g>
		<defs>
			<rect id="SVGID_27_" x="395.9" y="745.1" width="294.6" height="279.8"/>
		</defs>
		<clipPath id="SVGID_28_">
			<use xlink:href="#SVGID_27_"  style="overflow:visible;"/>
		</clipPath>
		<path class="st15" d="M417.5,890.8c-3.5-2.5-5.3-5.5-5.5-8.8c-0.2-3.2,1.2-6.7,4-9.9c-0.4,1.6-0.2,3.2,0.5,4.7
			c1.2,2.5,3.6,4,6.3,4c2.1,0,4.3-0.9,6.3-2.6c7.2-6,19.4-10.4,29.1-10.4c1.9,0,3.7,0.2,5.3,0.5c7.7,1.6,12.3,3.7,13.8,6.7
			c0.8,1.6,0.8,3.3,0,5.4c-10.1,4.3-31.2,8.6-42.1,8.6c-0.7,0-1.4,0-2.1-0.1c-1.4-0.1-2.8-0.1-4-0.1
			C421.6,888.7,418.5,890.2,417.5,890.8L417.5,890.8z"/>
	</g>
	<g>
		<defs>
			<rect id="SVGID_29_" x="395.9" y="745.1" width="294.6" height="279.8"/>
		</defs>
		<clipPath id="SVGID_30_">
			<use xlink:href="#SVGID_29_"  style="overflow:visible;"/>
		</clipPath>
		<path class="st16" d="M471.2,854c2.2,3.4,1.1,6.7,1.1,6.7"/>
	</g>
	<g>
		<defs>
			<rect id="SVGID_31_" x="395.9" y="745.1" width="294.6" height="279.8"/>
		</defs>
		<clipPath id="SVGID_32_">
			<use xlink:href="#SVGID_31_"  style="overflow:visible;"/>
		</clipPath>
		<path class="st17" d="M489.6,967.9c34.6,23.5,68.7,8.7,80.2-2.4c11.4-11.1,20.8-28.5,20-45.9s-8.5-32.9-19.5-42.8
			c-10.7-9.6-12.4-8.7-13.2-7.7s-1.4,1.1,5,12.2s13.4,24.6,9.5,40.2c-3.9,15.6-15.6,29.9-29.6,34c-14,4-21.6-1.4-26.1-3.2
			c0,0,1,4-3.4,4.3c-4.3,0.3-11.1-2.9-11.1-2.9s2.7,3,0.1,5s-5.9-0.9-5.9-0.9s2.5,2.2,1.5,3.3s-2.3,0.8-4.2-0.6c0,0,3.2,3.6,1,5.5
			S489.6,967.9,489.6,967.9L489.6,967.9z"/>
	</g>
	<g>
		<defs>
			<rect id="SVGID_33_" x="395.9" y="745.1" width="294.6" height="279.8"/>
		</defs>
		<clipPath id="SVGID_34_">
			<use xlink:href="#SVGID_33_"  style="overflow:visible;"/>
		</clipPath>
		<path class="st18" d="M528.6,979.9c-13.1,0-25.8-3.9-37.6-11.7c0.9-0.2,2.1-0.7,3.3-1.8c1.4-1.3,1-3,0.3-4.3
			c0.4,0.1,0.8,0.2,1.1,0.2c0.7,0,1.3-0.3,1.8-0.8c0.3-0.3,0.4-0.6,0.4-1c0-0.3-0.1-0.6-0.2-0.9c0.6,0.2,1.2,0.4,1.9,0.4
			c0.9,0,1.7-0.3,2.4-0.8c0.3-0.2,0.5-0.5,0.7-0.8c12.6,6.2,22.6,9.1,31.5,9.1c7.8,0,14.7-2.3,21.1-6.9
			c16.8-12.3,21.3-21.3,24.6-27.9l0.3-0.6c2.3-4.5,4.2-6.5,6.4-6.5c0.9,0,1.7,0.3,2.7,0.9c-1.4,13.6-8.7,28-19.6,38.6
			C561.8,972.5,546.3,979.9,528.6,979.9z"/>
	</g>
	<g>
		<defs>
			<rect id="SVGID_35_" x="395.9" y="745.1" width="294.6" height="279.8"/>
		</defs>
		<clipPath id="SVGID_36_">
			<use xlink:href="#SVGID_35_"  style="overflow:visible;"/>
		</clipPath>
		<path class="st19" d="M489.6,967.9c-3.9,0.1-6.7-0.9-6.7-0.9"/>
	</g>
	<g>
		<defs>
			<rect id="SVGID_37_" x="395.9" y="745.1" width="294.6" height="279.8"/>
		</defs>
		<clipPath id="SVGID_38_">
			<use xlink:href="#SVGID_37_"  style="overflow:visible;"/>
		</clipPath>
		<path class="st20" d="M484,908.3c-2.2,0.9-2.1,3.2,0.1,6.7c2.1,3.5,4.5,7.9,5.9,10.3c1.4,2.4,2.6,3.5,4,2.8c1.4-0.6,1.8-2,0.4-4.9
			s-5.8-11-7.2-12.7C485.6,908.8,484.8,908,484,908.3L484,908.3z"/>
	</g>
	<g>
		<defs>
			<rect id="SVGID_39_" x="395.9" y="745.1" width="294.6" height="279.8"/>
		</defs>
		<clipPath id="SVGID_40_">
			<use xlink:href="#SVGID_39_"  style="overflow:visible;"/>
		</clipPath>
		<path class="st21" d="M525.9,907.8c2.5-3.7,4.8-5.2,4.8-5.2 M534.5,914.5c1.5-3.1,3.7-5.6,3.7-5.6 M550.1,922.2
			c1-3.9,2.7-5.6,2.7-5.6 M563.5,925.6c0.6-4.6,0.9-6.6,0.9-6.6"/>
	</g>
	<g>
		<defs>
			<rect id="SVGID_41_" x="395.9" y="745.1" width="294.6" height="279.8"/>
		</defs>
		<clipPath id="SVGID_42_">
			<use xlink:href="#SVGID_41_"  style="overflow:visible;"/>
		</clipPath>
		<g class="st22">
			<path class="st23" d="M572.4,864.5c0.8-0.2,1.6-0.4,2.4-0.7"/>
			<path class="st24" d="M519.8,856.2c13.6-3.5,22.1,0.5,28.2,3.3c5.3,2.4,11.6,4.7,17.6,5.3"/>
			<path class="st23" d="M504.9,862.2c0.8-0.4,1.5-0.8,2.2-1.1"/>
			<path class="st25" d="M572.4,864.5c0.8-0.2,2.3-0.5,3.1-0.8"/>
			<path class="st26" d="M558.2,863.5c2,0.6,2.5,0.8,4.4,1"/>
			<path class="st27" d="M543.5,857.7c2.4,0.7,2.7,0.9,5.3,1.9"/>
			<path class="st28" d="M529.3,854.6c5.4,0.1,10.5,2.5,11.1,1.2"/>
			<path class="st29" d="M515.8,857.3c7.9-3.2,6.8-1.1,11-2.8"/>
			<path class="st30" d="M504.4,862.5c0.8-0.4,2-1.1,2.7-1.4"/>
		</g>
	</g>
	<g>
		<defs>
			<rect id="SVGID_43_" x="395.9" y="745.1" width="294.6" height="279.8"/>
		</defs>
		<clipPath id="SVGID_44_">
			<use xlink:href="#SVGID_43_"  style="overflow:visible;"/>
		</clipPath>
		<g class="st31">
			<path class="st32" d="M491.2,946.7c-4.1,1.1-6.1,1.8-10,3.5c-2.1,0.9-4.6,0.1-5.6-1.9s0-4.6,2.3-5.6c4.3-1.9,6.6-2.7,11.2-3.9
				c2.4-0.6,4.8,0.8,5.3,2.9C494.8,943.9,493.4,946.1,491.2,946.7L491.2,946.7z"/>
		</g>
	</g>
	<g>
		<defs>
			<rect id="SVGID_45_" x="395.9" y="745.1" width="294.6" height="279.8"/>
		</defs>
		<clipPath id="SVGID_46_">
			<use xlink:href="#SVGID_45_"  style="overflow:visible;"/>
		</clipPath>
		<path class="st33" d="M515.8,952.3c-0.2-2.3-1.7-3.3-1.7-3.3"/>
	</g>
	<g>
		<defs>
			<rect id="SVGID_47_" x="395.9" y="745.1" width="294.6" height="279.8"/>
		</defs>
		<clipPath id="SVGID_48_">
			<use xlink:href="#SVGID_47_"  style="overflow:visible;"/>
		</clipPath>
		<g class="st34">
			<path d="M454.5,887.5c-3.5,0.7-7.1,1.3-10.6,1.7c-3.6,0.4-7.2,0.8-10.8,0.6c-0.3,0-0.5-0.2-0.5-0.5s0.2-0.5,0.5-0.5
				c3.5,0.2,7.1-0.1,10.6-0.4c3.5-0.4,7.1-0.9,10.6-1.6c0.2,0,0.4,0.1,0.4,0.3C454.8,887.3,454.7,887.5,454.5,887.5z"/>
		</g>
	</g>
	<g>
		<defs>
			<rect id="SVGID_49_" x="395.9" y="745.1" width="294.6" height="279.8"/>
		</defs>
		<clipPath id="SVGID_50_">
			<use xlink:href="#SVGID_49_"  style="overflow:visible;"/>
		</clipPath>
		<g class="st35">
			<path d="M417.2,891.8c-2.2-1.6-4.3-3.6-5.4-6.2l-0.4-1l-0.2-1l-0.1-0.5v-0.5c0-0.4-0.1-0.7-0.1-1.1c0-1.4,0.2-2.8,0.7-4.1
				c0.9-2.6,2.6-4.9,4.4-6.9c1.9-2,4-3.6,6.2-5.2s4.6-2.9,7-4.1c2.4-1.2,5-2.2,7.6-2.9c5.2-1.5,10.7-1.9,16.1-1.4l-0.6,0.5
				c-0.2-1.3-0.7-2.7-1.4-3.8c-0.4-0.6-0.8-1.1-1.4-1.5c-0.5-0.5-1.2-1-1.5-1.9c-0.1-0.2-0.1-0.5-0.1-0.7c0.1-0.2,0.1-0.5,0.2-0.7
				c0.2-0.4,0.6-0.7,0.9-0.9c0.7-0.5,1.4-0.7,2.2-0.9c1.5-0.3,3-0.4,4.4-0.4c2.9,0.1,5.9,0.7,8.6,1.8s5.3,2.8,7.1,5.3l-0.9,0.5
				c-0.3-0.7-0.5-1.3-0.5-2.1c-0.1-0.7,0-1.5,0.4-2.3c0.3-0.3,0.5-0.7,1-0.8c0.2-0.1,0.4-0.1,0.6-0.2c0.2,0,0.4-0.1,0.6-0.1
				c0.7,0,1.4,0.1,2.1,0.2c1.4,0.3,2.6,0.8,3.9,1.4c1.2,0.6,2.4,1.3,3.5,2.1c2.2,1.6,4.1,3.6,5.6,5.9c0.7,1.2,1.4,2.4,1.8,3.7
				c0.3,0.6,0.4,1.3,0.5,2c0.1,0.3,0.1,0.7,0.1,1v1c-0.1,2.8-1.3,5.5-3,7.6c-1.7,2.2-3.6,4-5.9,5.6c-2.4,1.4-4.9,2.3-7.4,3.2
				c-2.5,0.8-5.1,1.5-7.8,1.9c1.2-0.5,2.5-0.9,3.7-1.4l3.7-1.3c2.5-0.9,5-1.8,7.2-3.2c2.1-1.5,4-3.3,5.6-5.4c1.5-2.1,2.6-4.5,2.7-7
				s-0.8-5-2.2-7.1c-1.4-2.2-3.2-4.1-5.3-5.6c-2.1-1.5-4.4-2.8-6.9-3.4c-0.6-0.1-1.2-0.2-1.8-0.2c-0.6,0-1,0.1-1.3,0.5
				c-0.5,0.8-0.2,2.3,0.2,3.4c0.1,0.3,0,0.5-0.3,0.6c-0.2,0.1-0.4,0-0.6-0.2c-1.6-2.3-4-3.8-6.6-4.9c-2.6-1.1-5.4-1.7-8.2-1.7
				c-1.4,0-2.8,0.1-4.2,0.4c-0.7,0.2-1.3,0.4-1.8,0.7c-0.5,0.4-0.8,0.8-0.7,1.3c0.1,0.5,0.6,0.9,1.2,1.4s1.1,1.1,1.5,1.7
				c0.9,1.3,1.4,2.7,1.6,4.3c0,0.3-0.2,0.5-0.4,0.5H453c-5.3-0.5-10.7-0.1-15.8,1.4c-2.5,0.7-5,1.7-7.4,2.8
				c-2.4,1.2-4.7,2.5-6.8,4.1c-2.2,1.5-4.3,3.2-6.1,5.1c-1.8,1.9-3.4,4.1-4.2,6.5c-0.4,1.2-0.6,2.5-0.7,3.8c0,0.3,0.1,0.6,0.1,1v0.5
				l0.1,0.5l0.2,0.9l0.4,0.9c1,2.4,2.9,4.3,5,5.8c0.2,0.2,0.3,0.5,0.1,0.7C417.7,891.9,417.5,892,417.2,891.8L417.2,891.8z"/>
		</g>
	</g>
	<g>
		<defs>
			<rect id="SVGID_51_" x="395.9" y="745.1" width="294.6" height="279.8"/>
		</defs>
		<clipPath id="SVGID_52_">
			<use xlink:href="#SVGID_51_"  style="overflow:visible;"/>
		</clipPath>
		<g class="st36">
			<path class="st14" d="M615.1,863.2c2,1.2,2.3,1.8,2.3,1.8"/>
			<path d="M615.3,862.9l1.2,0.9c0.2,0.2,0.4,0.3,0.6,0.5c0.2,0.2,0.3,0.4,0.5,0.6c0,0.1,0,0.2-0.1,0.2h-0.2l-0.5-0.5
				c-0.2-0.1-0.4-0.3-0.6-0.4c-0.4-0.3-0.8-0.5-1.3-0.7c-0.2-0.1-0.2-0.3-0.1-0.5S615,862.8,615.3,862.9
				C615.2,862.9,615.2,862.9,615.3,862.9L615.3,862.9z"/>
		</g>
	</g>
</g>
</svg>
